<?xml version="1.0" encoding="UTF-8"?><svg id="Layer_1" xmlns="http://www.w3.org/2000/svg" viewBox="0 0 9000 9000"><defs><style>.cls-1{fill:none;}</style></defs><path class="cls-1" d="m8501,3297.81v59.98c-.91,11.21-2.26,22.41-2.65,33.63-1.44,41.27-1.07,82.57-4.76,123.81-10,111.69-28.33,221.93-55.37,330.73-30.59,123.09-71.64,242.67-122.21,358.93-81.39,187.09-184.13,362.01-303.22,527.42-84.15,116.87-174.52,228.82-268.96,337.53-151.38,174.24-313.36,338.12-483.06,494.43-120.58,111.07-244.6,218.2-371.8,321.64-131.81,107.19-263.24,214.85-395.31,321.71-203.03,164.28-406.34,328.21-609.75,492.02-203.41,163.81-407,327.4-610.68,490.88-176.13,141.37-352.53,282.41-528.75,423.68-75.89,60.85-151.6,121.92-227.43,182.84-3.52,2.83-7.47,5.12-11.62,7.93-6.43-4.9-12.31-9.2-18.01-13.72-122.05-97-244.07-194.03-366.11-291.05-205.48-163.35-411-326.65-616.44-490.05-135.57-107.82-271.14-215.65-406.54-323.69-136.44-108.88-272.88-217.75-408.9-327.14-137.58-110.64-274.83-221.7-410.04-335.26-126.02-105.84-251.35-212.48-373.98-322.26-101.28-90.67-200.96-183.04-298.98-277.22-137.51-132.11-269.38-269.59-393.57-414.32-133-154.99-254.87-318.19-360.3-493.31-84.69-140.67-159.28-286.36-215.31-441.05-26.55-73.31-49.42-147.75-68.07-223.47-20.57-83.5-36.96-167.78-46.73-253.26-4.38-38.37-8.17-76.81-11.46-115.28-2.16-25.21-2.93-50.54-4.38-75.82-.45-7.93,0-16.16-6.59-22.3v-127.96c6.86-8.44,6.48-18.61,6.74-28.58,1.82-70.01,8.82-139.61,17.99-208.95,7.07-53.45,16.41-106.6,27.64-159.38,31-145.73,75.81-287.04,135.44-423.61,75.6-173.14,172.07-333.65,291.04-480.52,98.14-121.14,208.71-229.59,332.14-324.89,82.42-63.64,169.5-120.12,260.72-170.29,64.24-35.33,130-67.52,197.44-96.27,90.75-38.68,183.57-71.5,278.68-97.76,58.42-16.13,117.42-29.84,176.98-40.97,58.94-11.01,118.15-20.46,177.91-25.79,42.45-3.79,84.94-8.17,127.51-9.51,78.58-2.48,157.23-3.44,235.72,3.12,35.18,2.94,70.45,5.26,105.45,9.71,80.65,10.25,160.55,24.72,239.57,44.13,118.67,29.14,233.51,69.28,344.72,119.7,105.77,47.95,206.71,104.67,302.73,170.07,112.67,76.75,216.67,163.95,313.02,260.3,97.76,97.75,185.18,204.24,266.06,316.22,51.88,71.82,103.82,143.6,155.78,215.37,4.65,6.43,9.62,12.63,14.91,19.55,2.58-2.74,4.69-4.41,6.08-6.55,13.41-20.68,26.75-41.4,40-62.18,72.45-113.58,150.38-223.16,237.32-326.22,91.28-108.21,190.22-208.68,299.26-299.16,120.51-100,250.7-185.01,391.16-254.2,144.6-71.23,295.77-123.88,453.09-158.85,83.29-18.51,167.36-32.21,252.33-40.5,53.08-5.17,106.26-8.84,159.52-10.28,100.72-2.71,201.1,3.03,301.18,14.67,67.55,7.86,134.55,19,200.98,33.34,125.23,27.04,247.07,65.1,365.38,114.32,182.55,75.93,351.65,174.63,506.03,298.4,121.12,97.11,229.76,206.54,326.04,328.29,97.96,123.87,179.75,257.75,246.87,400.59,43.68,92.96,80.01,188.82,109.73,287.14,26.61,88.03,47.89,177.34,63.37,268.04,17.85,104.56,31.5,209.5,31.42,315.83,0,6.66.03,13.34.51,19.98.61,8.57,1.68,17.1,2.55,25.65Z"/><path d="m8501,3297.81v59.98c-.91,11.21-2.26,22.41-2.65,33.63-1.44,41.27-1.07,82.57-4.76,123.81-10,111.69-28.33,221.93-55.37,330.73-30.59,123.09-71.64,242.67-122.21,358.93-81.39,187.09-184.13,362.01-303.22,527.42-84.15,116.87-174.52,228.82-268.96,337.53-151.38,174.24-313.36,338.12-483.06,494.43-120.58,111.07-244.6,218.2-371.8,321.64-131.81,107.19-263.24,214.85-395.31,321.71-203.03,164.28-406.34,328.21-609.75,492.02-203.41,163.81-407,327.4-610.68,490.88-176.13,141.37-352.53,282.41-528.75,423.68-75.89,60.85-151.6,121.92-227.43,182.84-3.52,2.83-7.47,5.12-11.62,7.93-6.43-4.9-12.31-9.2-18.01-13.72-122.05-97-244.07-194.03-366.11-291.05-205.48-163.35-411-326.65-616.44-490.05-135.57-107.82-271.14-215.65-406.54-323.69-136.44-108.88-272.88-217.75-408.9-327.14-137.58-110.64-274.83-221.7-410.04-335.26-126.02-105.84-251.35-212.48-373.98-322.26-101.28-90.67-200.96-183.04-298.98-277.22-137.51-132.11-269.38-269.59-393.57-414.32-133-154.99-254.87-318.19-360.3-493.31-84.69-140.67-159.28-286.36-215.31-441.05-26.55-73.31-49.42-147.75-68.07-223.47-20.57-83.5-36.96-167.78-46.73-253.26-4.38-38.37-8.17-76.81-11.46-115.28-2.16-25.21-2.93-50.54-4.38-75.82-.45-7.93,0-16.16-6.59-22.3v-127.96c6.86-8.44,6.48-18.61,6.74-28.58,1.82-70.01,8.82-139.61,17.99-208.95,7.07-53.45,16.41-106.6,27.64-159.38,31-145.73,75.81-287.04,135.44-423.61,75.6-173.14,172.07-333.65,291.04-480.52,98.14-121.14,208.71-229.59,332.14-324.89,82.42-63.64,169.5-120.12,260.72-170.29,64.24-35.33,130-67.52,197.44-96.27,90.75-38.68,183.57-71.5,278.68-97.76,58.42-16.13,117.42-29.84,176.98-40.97,58.94-11.01,118.15-20.46,177.91-25.79,42.45-3.79,84.94-8.17,127.51-9.51,78.58-2.48,157.23-3.44,235.72,3.12,35.18,2.94,70.45,5.26,105.45,9.71,80.65,10.25,160.55,24.72,239.57,44.13,118.67,29.14,233.51,69.28,344.72,119.7,105.77,47.95,206.71,104.67,302.73,170.07,112.67,76.75,216.67,163.95,313.02,260.3,97.76,97.75,185.18,204.24,266.06,316.22,51.88,71.82,103.82,143.6,155.78,215.37,4.65,6.43,9.62,12.63,14.91,19.55,2.58-2.74,4.69-4.41,6.08-6.55,13.41-20.68,26.75-41.4,40-62.18,72.45-113.58,150.38-223.16,237.32-326.22,91.28-108.21,190.22-208.68,299.26-299.16,120.51-100,250.7-185.01,391.16-254.2,144.6-71.23,295.77-123.88,453.09-158.85,83.29-18.51,167.36-32.21,252.33-40.5,53.08-5.17,106.26-8.84,159.52-10.28,100.72-2.71,201.1,3.03,301.18,14.67,67.55,7.86,134.55,19,200.98,33.34,125.23,27.04,247.07,65.1,365.38,114.32,182.55,75.93,351.65,174.63,506.03,298.4,121.12,97.11,229.76,206.54,326.04,328.29,97.96,123.87,179.75,257.75,246.87,400.59,43.68,92.96,80.01,188.82,109.73,287.14,26.61,88.03,47.89,177.34,63.37,268.04,17.85,104.56,31.5,209.5,31.42,315.83,0,6.66.03,13.34.51,19.98.61,8.57,1.68,17.1,2.55,25.65Z"/></svg>