<?xml version="1.0" encoding="UTF-8"?><svg id="Layer_1" xmlns="http://www.w3.org/2000/svg" viewBox="0 0 9000 9000"><path d="m510.46,4499.56c0-5.11,0-10.23,0-15.34,4.22-4.32,9.56-7.99,12.49-13.06,344.3-595.95,688.4-1192.02,1032.57-1788.05,312.89-541.86,626.01-1083.58,938.17-1625.85,12.57-21.84,27.3-24.95,49.22-24.95,1309,.39,2618,.45,3926.99-.33,26.96-.02,40.43,9.47,53.19,31.61,246.68,428.19,494.17,855.93,741.28,1283.88,391.41,677.85,782.68,1355.78,1173.92,2033.73,21.04,36.46,57.73,73.51,57.42,110.03-.33,38.1-35.81,76.38-57.38,113.74-343.48,594.95-687.27,1189.73-1030.84,1784.63-294.4,509.75-588.86,1019.46-882.22,1529.8-14.96,26.02-30.89,34.01-59.9,33.91-299.12-1.08-598.25-.66-897.38-.66-1006.04,0-2012.07-.12-3018.11.6-30.06.02-47.89-7.48-62.96-35.35-41.9-77.47-87.81-152.76-131.84-229.09-270.52-468.96-540.81-938.06-811.47-1406.95-286.62-496.54-573.43-992.97-860.5-1489.24-56.77-98.14-115.07-195.39-172.67-293.04Z"/></svg>