<?xml version="1.0" encoding="utf-8"?>
<!-- Generator: Adobe Illustrator 27.4.1, SVG Export Plug-In . SVG Version: 6.00 Build 0)  -->
<svg version="1.1" id="Art" xmlns="http://www.w3.org/2000/svg" xmlns:xlink="http://www.w3.org/1999/xlink" x="0px" y="0px"
	 viewBox="0 0 9000 9000" style="enable-background:new 0 0 9000 9000;" xml:space="preserve">
<path d="M8474.8,4212.7L6667.3,2641.6c-15.9-13.8-25-33.9-25-54.9V992.9c0-40.2-32.6-72.8-72.8-72.8h-740.8
	c-40.2,0-72.8,32.6-72.8,72.8v831.9c0,9.6-11.3,14.7-18.5,8.4l-1189.6-1034c-27.4-23.8-68.1-23.8-95.5,0L525.2,4212.7
	c-50.8,44.2-19.6,127.7,47.8,127.7h788.6c40.2,0,72.8,32.6,72.8,72.8v3732.6c0,40.2,32.6,72.8,72.8,72.8h5985.7
	c40.2,0,72.8-32.6,72.8-72.8V4413.2c0-40.2,32.6-72.8,72.8-72.8h788.6C8494.4,4340.4,8525.6,4256.9,8474.8,4212.7z"/>
</svg>
