<?xml version="1.0" encoding="UTF-8"?><svg id="Layer_1" xmlns="http://www.w3.org/2000/svg" viewBox="0 0 9000 9000"><path d="m8207.73,5215.47c-77.32-112.26-132.7-227.57-103.6-382.62,0-.03,0-.06.02-.08,11.48-60.84,50.96-106.39,114.04-132.64,70.14-29.28,163.79.12,228.53-37.68,45.21-26.45,53.7-84.08,34.45-129.98-70.32-165.26-338.5-243.8-284.82-444.54,31.28-119.39,118.31-221.29,151.88-342.94,85.79-310.86-424.88-517.35-538.41-785.65-219.65-519.09,495.19-731.05,247.69-1203.36-106.7-208.37-280.14-156.23-424.53-130.91-143.98,24.93-258.91,23.05-239.25-302.25,38.65-152.99,155.69-235.82,219.2-327.09,63.9-91.81,74.27-192.07-91.24-392.4-90.1-110.61-215.37-121.07-318.9-63.07-103.31,57.57-184.88,183.6-182.49,336.04,3.86,227.86-43.1,368.68-110.55,429.96-67.35,60.91-155.19,42.27-230.6-57.1-.06-.07-.11-.15-.17-.22-98.64-130.27-305.3-106.3-355.5-275.49-27.34-92.41-27.8-203.65-84.8-276.39-103.99-133.49-368.83-78.17-421.31,102.98-45.25,154.8-114.11,269.08-193.4,175.47-60.01-71.02,42.45-187.31-86.75-276.14-233.38-159.93-443.29,226.99-605.34-1.1-109.16-153.39-226.67-208.83-419.71-202.87-173.96,5.36-318.15,133.25-486.66,190.42-161.62,55.42-333.85-1.37-487.63-16.23-145.71-14.08-331.58,64-372.32,216.8-23.77,89.17,46.02,215.61-10.56,292.75-87.89,119.84-290.39,63.04-343.99-54.74-32.72-71.9-34.95-153.34-50.74-230.75-37.3-182.93-217.47-282.49-394.98-202.72-110.4,49.63-192.27,169.33-206.8,300.47-16.19,146.34,42.73,313.27-35.38,427.07-52.83,76.78-151.21,99.42-223.11,156.41-90.1,71.38-131.33,189.54-206.99,276.48-123.93,141.94-259.63,87.83-399.06,3.6-139.83-84.37-283.4-198.87-432.18-180.81-156.49,19.06-261.64,187.88-232.39,335.69,29.38,147.89,164.9,266.56,315.46,329.25,99.06,41.25,215.26,70.08,269.55,156.12,38.58,61.11,32.81,142.54-14.62,195.28,0,0-.02.02-.02.03-128.08,142.27-347.39,1.82-499.81,97.05-71.2,44.5-92.11,137.82-53.96,208.61,38.08,70.8,125.76,116.51,213.52,122.87,44.58,3.24,89.29-2.46,133.07,3.2,43.8,5.66,89.46,26.5,104.22,63.47,15.76,39.45-8.51,81.49-35.46,115.24-82.66,103.65-196.9,186.32-291.87,285.46-156.25,162.63-164.53,289.46-95.19,475.34,38.29,103.47,113.95,231.65,59.79,342.92-73.99,153.05-258.37,164.46-250.54,366.35,9.9,214.66,318.59,146.53,449.5,250.09,141.62,111.11,90.16,272.52-6.66,437.88-96.6,164.98-238.56,333.91-272.92,451.25-46.06,158.36-2.46,340.57,148.3,420.28,151.35,80.05,363.79,40.04,507.25,122.08,150.53,85.87,169.43,308.89,39.94,443.14-52.3,54.04-121.35,91.67-180.37,139.98-165.07,135.03-235.46,361.31-158.65,535.56,76.89,173.84,296.45,279.04,496.88,222.25,125.94-35.83,231.99-124.94,334.31-209.41,102.32-84.47,211.67-169.83,336.8-195.93,125.17-26.08,268.4,29.71,293.21,152.79,39.38,194.9-187.12,325.25-263.1,487.49-103.69,221.34,52.23,439.21,287.36,430.92,34.51-1.39,70.75-8.96,98.93-32.4,37.91-31.53,53.48-84.23,66.67-132.82,61.66-227.49,106.45-724.99,413.76-556.18,63.41,40.08,102.26,112.47,131.69,186.49,29.44,73.97,52.41,153.3,95.6,220.51,56.42,87.8,147.09,149.69,246.15,166.49,156.51,26.61,311.13-55.13,462.31-106.37,262.21-88.54,365.08,22.74,566.16,185.18,139.92,113.59,336.41,133.32,486.13,48.49,69.46-39.16,129.91-100.65,159.34-180.19,24.17-65.31,26.54-138.42,43.12-205.59,83.25-333.2,408.83-343.38,666.19-193.56,83.97,49.37,159.43,132.25,180.35,232.68,9.97,47.91,7.5,98.86,28.28,144.12,37.45,81.66,131.55,109.02,212.29,120.15,120.41,16.76,246.19,20.32,350.87-31.69,104.69-52.13,181.96-171.55,157.67-297.79-24.95-129.67-140.49-223.97-210.6-336.94-233.69-379.59,85.48-677.43,436.35-654.41,39.54,2.57,81.12,9.28,116.19,32,62.77,40.65,86.58,119.91,92.08,190.36,5.5,70.42-.76,142.7,26.51,211.47,56.12,141.68,225.08,207.55,373,240.88,92.43,20.91,191.61,36.62,273.51,2.3,121.96-51.18,165.95-195.01,169.04-327.75,8.17-329.89-207.95-543.45-321.77-838.44-82.06-214.55-92.53-468.17,183.33-519.54,89.02-16.47,191.28.09,272.79-36.34,80.58-36.03,121.58-116.28,144.72-195.42,29.17-99.39,36.99-211.66-18.56-308.87-56.45-98.8-129.77-183.76-189.69-270.7Z"/><path d="m8072.36,2535.76c95.63,11,265.59,139.49,211.9,261.83-53.73,122.44-279.28,166.63-377.85,120.04-151.74-71.72-33.54-404.82,165.95-381.88Z"/><path d="m7831.94,7804.74c64.97-17.03,167.9-8.49,186.48,64.16,18.59,72.71-62.62,122.61-122.31,136.1-91.88,20.77-173.19-171.68-64.16-200.26Z"/><path d="m8153.53,6868.8c49.02-12.99,126.57-6.89,140.35,47.62,13.79,54.55-47.57,92.28-92.6,102.59-69.31,15.88-130-128.41-47.75-150.21Z"/><path d="m7836.34,879.25c-67.44,0-132.14-94.04-107.99-160.23,24.17-66.24,132.1-84.62,178.79-44.83,121.26,103.38,36.53,205.06-70.8,205.06Z"/><path d="m6684.96,938.14c49.02-12.99,145.98-47.74,159.76,6.77,13.79,54.55-31.39,160.18-112.01,143.45-119.59-24.82-130-128.41-47.75-150.21Z"/><path d="m2348.58,7709.39c0,69.05-55.97,125.02-125.02,125.02s-153.81-18.14-153.81-87.19,57.62-208.1,126.67-208.1,152.17,101.21,152.17,170.26Z"/><path d="m7224.4,7304.48c0,69.05-55.97,125.02-125.02,125.02s-153.81-18.14-153.81-87.19,57.62-208.1,126.67-208.1,152.17,101.21,152.17,170.26Z"/><path d="m927.49,6896.48c-110.09-58.72-262.99,59.77-310.81-167.36-25.7-122.1,93.12-201.23,215.18-227.13,122.06-25.9,310.81-35.86,382.54,131.5,132.61,309.42-107.59,358.63-286.9,262.99Z"/><path d="m1671.73,1363.63c-102.07,71.77-65.29,261.68-289.57,201.9-120.56-32.13-137.59-173.88-105.65-294.5s108.19-293.57,289.91-282.09c335.97,21.22,271.54,257.79,105.3,374.69Z"/></svg>