<?xml version="1.0" encoding="UTF-8"?><svg id="Layer_1" xmlns="http://www.w3.org/2000/svg" viewBox="0 0 9000 9000"><path d="m8500,3655.46c-1.24,1.29-3.39,2.44-3.6,3.88-7.79,51.69-35.29,92.4-70.86,128.89-185.25,190.04-370.37,380.21-555.55,570.31-392.94,403.39-785.91,806.76-1178.76,1210.24-15.38,15.8-36.3,30.5-42.56,49.65-5.9,18.04,3.89,41.34,7.28,62.25,52.7,325.62,105.44,651.23,158.26,976.83,38.62,238.04,77.28,476.07,116.09,714.07,45.35,278.14,90.88,556.25,136.35,834.37,21.73,132.92-55.71,252.78-185.95,287.84-6.14,1.65-12.07,4.12-18.1,6.21h-88.81c-31.86-14.06-65.02-25.77-95.38-42.54-716.84-396.05-1433.42-792.58-2149.78-1189.51-18.88-10.46-32.86-11.89-52.83-.81-646.67,358.67-1293.5,717.05-1941.07,1074.1-100.78,55.56-196.9,120.62-306.79,158.76h-88.81c-8.52-3.07-16.91-6.55-25.57-9.15-125.61-37.8-198.29-156.72-176.59-286.17,27.19-162.2,53-324.64,79.39-486.97,34.26-210.7,68.5-421.39,102.75-632.09,29.06-178.78,58.1-357.57,87.17-536.36,30.25-186.06,60.47-372.14,90.82-558.18,19.05-116.73,38.19-233.45,57.67-350.11,2.78-16.62.07-29.09-12.63-42.11-499.85-512.4-999.28-1025.21-1498.77-1537.97-90.35-92.75-180.87-185.32-271-278.28-60.26-62.16-82.81-136.63-68-221.62,16.02-91.95,87.85-184.62,214.46-203.26,138.08-20.33,275.97-41.89,413.95-62.9,138.89-21.14,277.8-42.19,416.68-63.4,164.47-25.11,328.92-50.34,493.38-75.51,139.79-21.39,279.58-42.81,419.38-64.13,151.68-23.14,303.38-46.1,455.05-69.29,79.48-12.15,158.85-24.98,238.41-36.63,12.63-1.85,20.18-6.38,24.62-18.18,3.89-10.35,9.29-20.13,14-30.18,190.4-405.83,380.82-811.65,571.19-1217.48,168.79-359.82,337.6-719.62,506.22-1079.52,14.31-30.55,32.23-58.17,57.87-80.38,118.47-102.62,333.32-73.7,407.17,85.32,358.14,771.23,720.33,1540.57,1080.46,2310.88,9.31,19.92,20.84,29.09,42.31,32.2,124.38,18.05,248.6,37.24,372.86,56.17,140.73,21.43,281.44,42.99,422.16,64.49,161.71,24.71,323.41,49.47,485.13,74.12,151.7,23.12,303.43,46.07,455.12,69.22,151.66,23.14,303.3,46.42,454.94,69.68,83.15,12.76,166.59,23.95,249.35,38.85,89.76,16.15,151.41,69.32,186.3,153.24,6.25,15.04,9.79,31.2,14.58,46.84v94.34Z"/></svg>